# xmcd
#
# Track frame offsets:
#	150
#	18109
#	43713
#	70280
#	83544
#	107822
#	130089
#	157354
#	174113
#	195363
#	212315
#	228983
#	242021
#	254360
#	269815
#	278462
#	289937
#	302288
#
# Disc length: 4254 seconds
#
# Revision: 0
# Processed by: cddbd v1.5.2PL0 Copyright (c) Steve Scherf et al.
# Submitted via: dBpowerAMP V4.0
#
DISCID=ed109c12
DTITLE=Ray Charles - Brother Ray The Genius 1949-1960 - CD3
DYEAR=1900
DGENRE=Soul
TTITLE0=The Ray
TTITLE1=Ain't Misbehavin'
TTITLE2=Doodun' Part I and II
TTITLE3=I Want a Little Girl
TTITLE4=Cosmic Ray
TTITLE5=Charlesville
TTITLE6=Soul Meeting
TTITLE7=The Spirit Feel Hot Rod
TTITLE8=Hard Times
TTITLE9=Sweet Eyes
TTITLE10=Come Rain or Come Shine
TTITLE11=Let The Good Times Roll
TTITLE12=It Had To Be You
TTITLE13=Two Years of Torture
TTITLE14=Alabamy Bound
TTITLE15=Rosetta
TTITLE16=Let's Go
TTITLE17=I'm Gonna Move To The Outskirts of Town
EXTD=
EXTT0=
EXTT1=
EXTT2=
EXTT3=
EXTT4=
EXTT5=
EXTT6=
EXTT7=
EXTT8=
EXTT9=
EXTT10=
EXTT11=
EXTT12=
EXTT13=
EXTT14=
EXTT15=
EXTT16=
EXTT17=
PLAYORDER=
